<?xml version="1.0" encoding="UTF-8"?>
<svg xmlns="http://www.w3.org/2000/svg" xmlns:xlink="http://www.w3.org/1999/xlink" width="18pt" height="13pt" viewBox="0 0 18 13" version="1.1">
<g id="surface1">
<path style=" stroke:none;fill-rule:evenodd;fill:rgb(197, 197, 197);fill-opacity:1;" d="M 0.644531 3.351562 L 17.355469 3.351562 C 17.710938 3.351562 18 3.167969 18 2.945312 L 18 1.929688 C 18 1.707031 17.710938 1.523438 17.355469 1.523438 L 0.644531 1.523438 C 0.289062 1.523438 0 1.707031 0 1.929688 L 0 2.945312 C 0 3.167969 0.289062 3.351562 0.644531 3.351562 Z M 0.644531 7.414062 L 17.355469 7.414062 C 17.710938 7.414062 18 7.230469 18 7.007812 L 18 5.992188 C 18 5.769531 17.710938 5.585938 17.355469 5.585938 L 0.644531 5.585938 C 0.289062 5.585938 0 5.769531 0 5.992188 L 0 7.007812 C 0 7.230469 0.289062 7.414062 0.644531 7.414062 Z M 0.644531 11.476562 L 17.355469 11.476562 C 17.710938 11.476562 18 11.292969 18 11.070312 L 18 10.054688 C 18 9.832031 17.710938 9.648438 17.355469 9.648438 L 0.644531 9.648438 C 0.289062 9.648438 0 9.832031 0 10.054688 L 0 11.070312 C 0 11.292969 0.289062 11.476562 0.644531 11.476562 Z M 0.644531 11.476562 "/>
</g>
</svg>
