<?xml version="1.0" encoding="UTF-8"?>
<svg xmlns="http://www.w3.org/2000/svg" xmlns:xlink="http://www.w3.org/1999/xlink" width="10pt" height="10pt" viewBox="0 0 10 10" version="1.1">
<g id="surface1">
<path style=" stroke:none;fill-rule:nonzero;fill:rgb(0%,0%,0%);fill-opacity:1;" d="M 5.78125 0.625 L 9.53125 0.625 C 9.789062 0.625 10 0.835938 10 1.09375 L 10 4.21875 C 10 4.476562 9.789062 4.6875 9.53125 4.6875 L 5.78125 4.6875 C 5.523438 4.6875 5.3125 4.476562 5.3125 4.21875 L 5.3125 1.09375 C 5.3125 0.835938 5.523438 0.625 5.78125 0.625 Z M 4.21875 0.625 L 0.46875 0.625 C 0.210938 0.625 0 0.835938 0 1.09375 L 0 4.21875 C 0 4.476562 0.210938 4.6875 0.46875 4.6875 L 4.21875 4.6875 C 4.476562 4.6875 4.6875 4.476562 4.6875 4.21875 L 4.6875 1.09375 C 4.6875 0.835938 4.476562 0.625 4.21875 0.625 Z M 0 5.78125 L 0 8.90625 C 0 9.164062 0.210938 9.375 0.46875 9.375 L 4.21875 9.375 C 4.476562 9.375 4.6875 9.164062 4.6875 8.90625 L 4.6875 5.78125 C 4.6875 5.523438 4.476562 5.3125 4.21875 5.3125 L 0.46875 5.3125 C 0.210938 5.3125 0 5.523438 0 5.78125 Z M 5.78125 9.375 L 9.53125 9.375 C 9.789062 9.375 10 9.164062 10 8.90625 L 10 5.78125 C 10 5.523438 9.789062 5.3125 9.53125 5.3125 L 5.78125 5.3125 C 5.523438 5.3125 5.3125 5.523438 5.3125 5.78125 L 5.3125 8.90625 C 5.3125 9.164062 5.523438 9.375 5.78125 9.375 Z M 5.78125 9.375 "/>
</g>
</svg>
