<?xml version="1.0" encoding="UTF-8"?>
<svg xmlns="http://www.w3.org/2000/svg" xmlns:xlink="http://www.w3.org/1999/xlink" width="18pt" height="16pt" viewBox="0 0 18 16" version="1.1">
<g id="surface1">
<path style=" stroke:none;fill-rule:nonzero;fill:rgb(0%,0%,0%);fill-opacity:1;" d="M 7.25 7.414062 C 8.242188 6.9375 8.761719 6.21875 8.761719 5.101562 C 8.761719 2.894531 7.117188 2.355469 5.222656 2.355469 L 0 2.355469 L 0 13.429688 L 5.367188 13.429688 C 7.382812 13.429688 9.273438 12.464844 9.273438 10.214844 C 9.273438 8.824219 8.613281 7.796875 7.25 7.414062 Z M 2.433594 4.246094 L 4.71875 4.246094 C 5.597656 4.246094 6.386719 4.492188 6.386719 5.511719 C 6.386719 6.453125 5.773438 6.832031 4.902344 6.832031 L 2.433594 6.832031 Z M 5.039062 11.550781 L 2.433594 11.550781 L 2.433594 8.5 L 5.085938 8.5 C 6.160156 8.5 6.835938 8.945312 6.835938 10.082031 C 6.835938 11.199219 6.027344 11.550781 5.039062 11.550781 Z M 16.242188 4.027344 L 11.75 4.027344 L 11.75 2.9375 L 16.242188 2.9375 Z M 18 9.539062 C 18 7.164062 16.613281 5.1875 14.097656 5.1875 C 11.652344 5.1875 9.992188 7.023438 9.992188 9.429688 C 9.992188 11.929688 11.566406 13.640625 14.097656 13.640625 C 16.011719 13.640625 17.253906 12.777344 17.851562 10.945312 L 15.90625 10.945312 C 15.695312 11.628906 14.835938 11.992188 14.164062 11.992188 C 12.875 11.992188 12.195312 11.234375 12.195312 9.949219 L 17.980469 9.949219 C 17.992188 9.820312 18 9.679688 18 9.539062 Z M 12.199219 8.5625 C 12.273438 7.507812 12.972656 6.851562 14.027344 6.851562 C 15.132812 6.851562 15.691406 7.5 15.785156 8.5625 Z M 12.199219 8.5625 "/>
</g>
</svg>
