<svg xmlns="http://www.w3.org/2000/svg" width="230" height="227" viewBox="0 0 230 227">
  <defs>
    <style>
      .cls-1 {
        fill: #fff;
        fill-rule: evenodd;
        opacity: 0.1;
      }
    </style>
  </defs>
  <path id="icon" class="cls-1" d="M1320.61,9387.28c9.48,13.41,18.93,25.39,25.2,33.12,0.91,1.12,1.77,2.16,2.6,3.17h-18.92a3.845,3.845,0,0,0,0,7.69h61.33a3.845,3.845,0,0,0,0-7.69h-18.91c0.83-1.01,1.68-2.05,2.6-3.17,6.26-7.7,15.72-19.71,25.19-33.12a337.238,337.238,0,0,0,25.32-40.96c7.83-15.43,11.8-28.23,11.8-38.07a77.023,77.023,0,0,0-22.45-54.48,3.84,3.84,0,1,0-5.42,5.44,69.36,69.36,0,0,1,20.21,49.04c0,8.61-3.69,20.25-10.97,34.58a331.473,331.473,0,0,1-24.74,40.01c-9.35,13.23-18.69,25.08-24.88,32.7-2.06,2.53-3.91,4.77-5.49,6.66a3.87,3.87,0,0,1-5.84,0c-1.58-1.89-3.43-4.13-5.49-6.66-6.19-7.61-15.53-19.47-24.88-32.7a330.289,330.289,0,0,1-24.75-40.01c-7.28-14.33-10.96-25.97-10.96-34.58a69.021,69.021,0,0,1,95.87-63.9,3.847,3.847,0,0,0,2.99-7.09,76.822,76.822,0,0,0-106.53,70.99c0,9.84,3.98,22.64,11.8,38.09A337.476,337.476,0,0,0,1320.61,9387.28Zm39.55-113.75a3.85,3.85,0,0,0,0-7.7,38.465,38.465,0,1,0,27.1,11.27,3.821,3.821,0,0,0-6.46,1.7,3.874,3.874,0,0,0,1.04,3.74A30.629,30.629,0,1,1,1360.16,9273.53Zm113.55,167.62-23.57-42.32a11.906,11.906,0,0,0-10.43-6.04h-27.32a3.845,3.845,0,0,0,0,7.69h27.32a4.261,4.261,0,0,1,3.74,2.1l23.57,42.32a3.471,3.471,0,0,1-.04,3.56,4.223,4.223,0,0,1-3.71,2.04H1257.04a4.228,4.228,0,0,1-3.7-2.04,3.471,3.471,0,0,1-.04-3.56l23.57-42.32a4.261,4.261,0,0,1,3.74-2.1h27.32a3.845,3.845,0,0,0,0-7.69h-27.32a11.922,11.922,0,0,0-10.44,6.04l-23.57,42.32a11.2,11.2,0,0,0,.12,11.2,11.817,11.817,0,0,0,10.32,5.84h206.23a11.805,11.805,0,0,0,10.32-5.84A11.18,11.18,0,0,0,1473.71,9441.15Zm-40.72-29.13h-15.33a3.924,3.924,0,0,0-2.13.65l-11.5,7.7a3.841,3.841,0,0,0,4.25,6.4l10.53-7.05h14.18A3.85,3.85,0,0,0,1432.99,9412.02Zm-23,26.93a3.841,3.841,0,0,0,3.83,3.85h30.67a3.845,3.845,0,0,0,0-7.69h-30.67A3.839,3.839,0,0,0,1409.99,9438.95Zm-95.83-11.54a3.851,3.851,0,0,0,2.13-7.05l-11.5-7.69a3.842,3.842,0,0,0-2.13-.65h-15.33a3.85,3.85,0,0,0,0,7.7h14.18l10.53,7.05A3.825,3.825,0,0,0,1314.16,9427.41Zm-38.33,7.7a3.845,3.845,0,0,0,0,7.69h30.66a3.845,3.845,0,0,0,0-7.69h-30.66Z" transform="translate(-1245.16 -9231.19)"/>
</svg>
