<?xml version="1.0" encoding="UTF-8"?>
<svg xmlns="http://www.w3.org/2000/svg" xmlns:xlink="http://www.w3.org/1999/xlink" width="18pt" height="16pt" viewBox="0 0 18 16" version="1.1">
<g id="surface1">
<path style=" stroke:none;fill-rule:nonzero;fill:rgba(255,255,255, 0.6);" d="M 17.175781 3.878906 C 16.980469 3.136719 16.402344 2.554688 15.667969 2.359375 C 14.335938 2 9 2 9 2 C 9 2 3.664062 2 2.332031 2.359375 C 1.597656 2.554688 1.019531 3.136719 0.824219 3.878906 C 0.464844 5.21875 0.464844 8.011719 0.464844 8.011719 C 0.464844 8.011719 0.464844 10.808594 0.824219 12.148438 C 1.019531 12.886719 1.597656 13.445312 2.332031 13.640625 C 3.664062 14 9 14 9 14 C 9 14 14.335938 14 15.667969 13.640625 C 16.402344 13.445312 16.980469 12.886719 17.175781 12.148438 C 17.535156 10.808594 17.535156 8.011719 17.535156 8.011719 C 17.535156 8.011719 17.535156 5.21875 17.175781 3.878906 Z M 7.253906 10.550781 L 7.253906 5.472656 L 11.714844 8.011719 Z M 7.253906 10.550781 "/>
</g>
</svg>
