<?xml version="1.0" encoding="UTF-8"?>
<svg xmlns="http://www.w3.org/2000/svg" xmlns:xlink="http://www.w3.org/1999/xlink" width="13pt" height="14pt" viewBox="0 0 13 14" version="1.1">
<g id="surface1">
<path style=" stroke:none;fill-rule:nonzero;fill:rgb(255, 206, 28);fill-opacity:1;" d="M 4.292969 7.875 L 3.132812 7.875 C 2.941406 7.875 2.785156 7.726562 2.785156 7.546875 L 2.785156 6.453125 C 2.785156 6.273438 2.941406 6.125 3.132812 6.125 L 4.292969 6.125 C 4.484375 6.125 4.644531 6.273438 4.644531 6.453125 L 4.644531 7.546875 C 4.644531 7.726562 4.484375 7.875 4.292969 7.875 Z M 7.429688 7.546875 L 7.429688 6.453125 C 7.429688 6.273438 7.273438 6.125 7.082031 6.125 L 5.917969 6.125 C 5.726562 6.125 5.570312 6.273438 5.570312 6.453125 L 5.570312 7.546875 C 5.570312 7.726562 5.726562 7.875 5.917969 7.875 L 7.082031 7.875 C 7.273438 7.875 7.429688 7.726562 7.429688 7.546875 Z M 10.214844 7.546875 L 10.214844 6.453125 C 10.214844 6.273438 10.058594 6.125 9.867188 6.125 L 8.707031 6.125 C 8.515625 6.125 8.355469 6.273438 8.355469 6.453125 L 8.355469 7.546875 C 8.355469 7.726562 8.515625 7.875 8.707031 7.875 L 9.867188 7.875 C 10.058594 7.875 10.214844 7.726562 10.214844 7.546875 Z M 7.429688 10.171875 L 7.429688 9.078125 C 7.429688 8.898438 7.273438 8.75 7.082031 8.75 L 5.917969 8.75 C 5.726562 8.75 5.570312 8.898438 5.570312 9.078125 L 5.570312 10.171875 C 5.570312 10.351562 5.726562 10.5 5.917969 10.5 L 7.082031 10.5 C 7.273438 10.5 7.429688 10.351562 7.429688 10.171875 Z M 4.644531 10.171875 L 4.644531 9.078125 C 4.644531 8.898438 4.484375 8.75 4.292969 8.75 L 3.132812 8.75 C 2.941406 8.75 2.785156 8.898438 2.785156 9.078125 L 2.785156 10.171875 C 2.785156 10.351562 2.941406 10.5 3.132812 10.5 L 4.292969 10.5 C 4.484375 10.5 4.644531 10.351562 4.644531 10.171875 Z M 10.214844 10.171875 L 10.214844 9.078125 C 10.214844 8.898438 10.058594 8.75 9.867188 8.75 L 8.707031 8.75 C 8.515625 8.75 8.355469 8.898438 8.355469 9.078125 L 8.355469 10.171875 C 8.355469 10.351562 8.515625 10.5 8.707031 10.5 L 9.867188 10.5 C 10.058594 10.5 10.214844 10.351562 10.214844 10.171875 Z M 13 3.0625 L 13 12.6875 C 13 13.414062 12.375 14 11.605469 14 L 1.394531 14 C 0.625 14 0 13.414062 0 12.6875 L 0 3.0625 C 0 2.335938 0.625 1.75 1.394531 1.75 L 2.785156 1.75 L 2.785156 0.328125 C 2.785156 0.148438 2.941406 0 3.132812 0 L 4.292969 0 C 4.484375 0 4.644531 0.148438 4.644531 0.328125 L 4.644531 1.75 L 8.355469 1.75 L 8.355469 0.328125 C 8.355469 0.148438 8.515625 0 8.707031 0 L 9.867188 0 C 10.058594 0 10.214844 0.148438 10.214844 0.328125 L 10.214844 1.75 L 11.605469 1.75 C 12.375 1.75 13 2.335938 13 3.0625 Z M 11.605469 12.523438 L 11.605469 4.375 L 1.394531 4.375 L 1.394531 12.523438 C 1.394531 12.613281 1.472656 12.6875 1.566406 12.6875 L 11.433594 12.6875 C 11.527344 12.6875 11.605469 12.613281 11.605469 12.523438 Z M 11.605469 12.523438 "/>
</g>
</svg>
