<?xml version="1.0" encoding="UTF-8"?>
<svg xmlns="http://www.w3.org/2000/svg" xmlns:xlink="http://www.w3.org/1999/xlink" width="15pt" height="15pt" viewBox="0 0 15 15" version="1.1">
<g id="surface1">
<path style=" stroke:none;fill-rule:nonzero;fill:rgb(0%,0%,0%);fill-opacity:1;" d="M 13.59375 1.875 L 1.40625 1.875 C 0.628906 1.875 0 2.503906 0 3.28125 L 0 11.71875 C 0 12.496094 0.628906 13.125 1.40625 13.125 L 13.59375 13.125 C 14.371094 13.125 15 12.496094 15 11.71875 L 15 3.28125 C 15 2.503906 14.371094 1.875 13.59375 1.875 Z M 13.59375 3.28125 L 13.59375 4.476562 C 12.9375 5.011719 11.886719 5.84375 9.652344 7.597656 C 9.160156 7.984375 8.179688 8.917969 7.5 8.90625 C 6.820312 8.917969 5.839844 7.984375 5.347656 7.597656 C 3.113281 5.84375 2.0625 5.011719 1.40625 4.476562 L 1.40625 3.28125 Z M 1.40625 11.71875 L 1.40625 6.28125 C 2.078125 6.816406 3.027344 7.566406 4.480469 8.699219 C 5.121094 9.207031 6.242188 10.316406 7.5 10.3125 C 8.75 10.316406 9.859375 9.222656 10.519531 8.703125 C 11.972656 7.566406 12.921875 6.816406 13.59375 6.28125 L 13.59375 11.71875 Z M 1.40625 11.71875 "/>
</g>
</svg>
